<svg width="49" height="48" viewBox="0 0 49 48" fill="none"
  xmlns="http://www.w3.org/2000/svg">
  <g clip-path="url(#clip0_2_43)">
    <path d="M48.2828 0H0.0141495C0.00633494 0 0 0.006296 0 0.0140625V47.9859C0 47.9937 0.00633494 48 0.0141495 48H48.2828C48.2906 48 48.2969 47.9937 48.2969 47.9859V0.0140625C48.2969 0.006296 48.2906 0 48.2828 0Z" fill="white"/>
    <path d="M33.5437 30.9375L34.6191 24H27.9217V19.5C27.9217 17.6062 28.8555 15.75 31.8552 15.75H34.9021V9.84375C34.9021 9.84375 32.1382 9.375 29.497 9.375C23.9787 9.375 20.3753 12.6938 20.3753 18.7125V24H14.2438V30.9375H20.3753V48H27.9217V30.9375H33.5437Z" fill="#1877F2"/>
  </g>
  <defs>
    <clipPath id="clip0_2_43">
      <rect width="48.2969" height="48" rx="15" fill="white"/>
    </clipPath>
  </defs>
</svg>
