<svg width="49" height="48" viewBox="0 0 49 48" fill="none" xmlns="http://www.w3.org/2000/svg"><path d="M43.8808 20.083H42.2598V20H24.1485V28H35.5214C33.8622 32.657 29.4038 36 24.1485 36C17.4805 36 12.0742 30.627 12.0742 24C12.0742 17.373 17.4805 12 24.1485 12C27.2264 12 30.0266 13.154 32.1587 15.039L37.8507 9.382C34.2566 6.053 29.449 4 24.1485 4C13.0351 4 4.02475 12.955 4.02475 24C4.02475 35.045 13.0351 44 24.1485 44C35.2618 44 44.2722 35.045 44.2722 24C44.2722 22.659 44.1333 21.35 43.8808 20.083Z" fill="#FFC107"/><path d="M6.345 14.691L12.9566 19.51C14.7456 15.108 19.0783 12 24.1484 12C27.2264 12 30.0266 13.154 32.1587 15.039L37.8507 9.382C34.2566 6.053 29.449 4 24.1484 4C16.4189 4 9.71572 8.337 6.345 14.691Z" fill="#FF3D00"/><path d="M24.1485 44C29.3464 44 34.0694 42.023 37.6404 38.808L31.4121 33.57C29.3917 35.091 26.8803 36 24.1485 36C18.9143 36 14.47 32.683 12.7957 28.054L6.23332 33.079C9.5638 39.556 16.3274 44 24.1485 44Z" fill="#4CAF50"/><path d="M43.8808 20.083H42.2598V20H24.1485V28H35.5214C34.7245 30.237 33.2766 32.166 31.4091 33.571C31.4101 33.57 31.4111 33.57 31.4121 33.569L37.6404 38.807C37.1997 39.205 44.2722 34 44.2722 24C44.2722 22.659 44.1333 21.35 43.8808 20.083Z" fill="#1976D2"/></svg>