<?xml version="1.0" encoding="UTF-8" standalone="no"?>
<!-- Created with Inkscape (http://www.inkscape.org/) -->
<svg width="512" height="512" viewBox="0 0 512 512" version="1.1" id="svg5" inkscape:version="1.1.2 (0a00cf5339, 2022-02-04, custom)" sodipodi:docname="logo.svg" inkscape:export-filename="/mnt/data/Files/Projects/Programming/InfDev/Lipoic-Assets/logo/logo.png" inkscape:export-xdpi="96" inkscape:export-ydpi="96" xmlns:inkscape="http://www.inkscape.org/namespaces/inkscape" xmlns:sodipodi="http://sodipodi.sourceforge.net/DTD/sodipodi-0.dtd" xmlns:xlink="http://www.w3.org/1999/xlink" xmlns="http://www.w3.org/2000/svg" xmlns:svg="http://www.w3.org/2000/svg">
  <sodipodi:namedview id="namedview7" pagecolor="#505050" bordercolor="#eeeeee" borderopacity="1" inkscape:pageshadow="0" inkscape:pageopacity="0" inkscape:pagecheckerboard="0" inkscape:document-units="px" showgrid="false" inkscape:zoom="0.285" inkscape:cx="-773.68421" inkscape:cy="359.64912" inkscape:window-width="1920" inkscape:window-height="1011" inkscape:window-x="0" inkscape:window-y="0" inkscape:window-maximized="1" inkscape:current-layer="layer1" inkscape:snap-bbox="true" inkscape:bbox-paths="true" inkscape:bbox-nodes="false" inkscape:snap-bbox-edge-midpoints="true" inkscape:snap-bbox-midpoints="true" inkscape:object-paths="true" inkscape:snap-intersection-paths="true" inkscape:snap-smooth-nodes="true" inkscape:snap-midpoints="true" inkscape:snap-object-midpoints="true" inkscape:snap-center="true" inkscape:snap-text-baseline="true" inkscape:snap-page="true" inkscape:snap-global="true"/>
  <defs id="defs2">
    <inkscape:perspective sodipodi:type="inkscape:persp3d" inkscape:vp_x="-1.41472 : 261.98034 : 1" inkscape:vp_y="0 : 1000 : 0" inkscape:vp_z="510.58528 : 261.98034 : 1" inkscape:persp3d-origin="254.58528 : 176.64701 : 1" id="perspective5196"/>
    <linearGradient inkscape:collect="always" id="linearGradient7318">
      <stop style="stop-color:#5efff2;stop-opacity:1" offset="0" id="stop7314"/>
      <stop style="stop-color:#b54cff;stop-opacity:1" offset="1" id="stop7316"/>
    </linearGradient>
    <inkscape:path-effect effect="fill_between_many" method="originald" linkedpaths="#path40342,0,1" id="path-effect40401"/>
    <linearGradient inkscape:collect="always" xlink:href="#linearGradient7318" id="linearGradient18231" gradientUnits="userSpaceOnUse" gradientTransform="matrix(1.5484609,0,0,0.89666748,-140.22588,26.49637)" x1="344.8559" y1="-2.4717507" x2="166.8687" y2="515.41504"/>
  </defs>
  <g inkscape:label="Layer 1" inkscape:groupmode="layer" id="layer1">
    <rect style="display:none;fill:#262a33;fill-opacity:1;stroke:none;stroke-width:10;stroke-linecap:butt;stroke-linejoin:round;stroke-miterlimit:4;stroke-dasharray:none;stroke-opacity:0;paint-order:stroke fill markers" id="rect26748" width="512" height="512" x="0" y="0" ry="93.786728" sodipodi:insensitive="true" inkscape:label="back"/>
    <g id="g8066" inkscape:label="baseline" style="display:none">
      <rect style="opacity:1;fill:#f3d39c;fill-opacity:0.25;stroke:none;stroke-width:0.1;stroke-linejoin:round" id="rect954" width="256" height="512" x="0" y="0" inkscape:label="b"/>
      <rect style="opacity:1;fill:#f3d39c;fill-opacity:0.25;stroke:none;stroke-width:0.1;stroke-linejoin:round" id="rect978" width="512" height="256" x="0" y="256" inkscape:label="a"/>
      <rect style="fill:#c2f39c;fill-opacity:0.25;stroke:none;stroke-width:0.1;stroke-linejoin:round" id="rect954-0" width="256" height="512" x="255.99998" y="7.6293945e-06" inkscape:label="b"/>
      <rect style="fill:#c2f39c;fill-opacity:0.25;stroke:none;stroke-width:0.1;stroke-linejoin:round" id="rect978-8" width="512" height="256" x="-1.2397766e-05" y="0" inkscape:label="a"/>
    </g>
    <g id="g6284" inkscape:label="guideline" style="display:none" sodipodi:insensitive="true">
      <path style="display:inline;fill:none;stroke:#000000;stroke-width:1px;stroke-linecap:butt;stroke-linejoin:miter;stroke-opacity:1" d="M 256.47133,512.37447 391.99574,129.58108" id="path4515-5" inkscape:label="guideline"/>
      <path style="fill:none;stroke:#000000;stroke-width:1px;stroke-linecap:butt;stroke-linejoin:miter;stroke-opacity:1" d="M 120.47559,128.7071 256,511.50049" id="path4515" inkscape:label="guideline"/>
      <path style="fill:none;stroke:#000000;stroke-width:1.41421px;stroke-linecap:butt;stroke-linejoin:miter;stroke-opacity:1" d="M 0,128.7071 H 512" id="path2975" inkscape:label="guideline"/>
    </g>
    <path id="path1657-8" style="display:inline;mix-blend-mode:normal;fill:url(#linearGradient18231);fill-opacity:1;stroke:#4d4d4d;stroke-width:5;stroke-linecap:butt;stroke-linejoin:round;stroke-miterlimit:4;stroke-dasharray:none;stroke-opacity:1;paint-order:normal" d="m 255.88773,26.779397 v 0.19505 c -162.762725,237.034573 -197.02455,445.664953 0,459.142713 v 0.0352 c 0.0168,-0.004 0.0327,-0.009 0.0492,-0.0141 v 0.0105 c 0.0104,-0.003 0.0199,-0.006 0.0299,-0.009 0.0104,0.003 0.02,0.006 0.0299,0.009 v -0.0105 c 0.0165,0.004 0.0324,0.009 0.0493,0.0141 v -0.0352 c 197.02455,-13.47776 162.76272,-222.10814 0,-459.142713 v -0.19505 c -0.017,0.02772 -0.0327,0.0538 -0.0493,0.08083 v -0.06326 c -0.009,0.01644 -0.0199,0.03287 -0.0299,0.0492 -0.0104,-0.01632 -0.02,-0.03278 -0.0299,-0.0492 v 0.06326 c -0.0165,-0.02705 -0.0322,-0.05314 -0.0492,-0.08083 z m -0.2794,78.016233 c 0,0 0.16186,0.28958 0.2794,0.49905 v 0.21087 c 7.3e-4,-0.002 0.0301,-0.0525 0.0492,-0.0862 v 0.0668 c 0.007,-0.0124 0.0187,-0.0331 0.0299,-0.0527 0.0112,0.0196 0.0228,0.0403 0.0299,0.0527 v -0.0668 c 0.0191,0.0335 0.0485,0.0843 0.0493,0.0862 v -0.21087 c 0.11754,-0.20947 0.27939,-0.49905 0.27939,-0.49905 0,0 23.21538,38.84161 46.19508,86.23818 -11.98646,10.7953 -31.16786,23.29079 -46.55354,23.27413 -15.38568,0.0167 -34.56709,-12.47883 -46.55354,-23.27413 22.9797,-47.39657 46.19507,-86.23818 46.19507,-86.23818 z m -57.03877,119.53363 c 0,0 40.59961,28.56331 57.37791,28.56332 0.006,0 0.0127,-7.5e-4 0.0194,-0.002 0.006,9e-4 0.0133,0.002 0.0194,0.002 16.77829,-1e-5 57.37791,-28.56332 57.37791,-28.56332 0,0 29.35427,58.04127 33.21462,90.60835 7.79028,65.72119 -32.43462,124.03589 -90.582,124.08655 v -0.002 c -0.0104,2e-5 -0.02,9e-4 -0.0299,0.002 -0.0104,-5.2e-4 -0.0198,-0.002 -0.0299,-0.002 v 0.002 c -58.14739,-0.0506 -98.37229,-58.36536 -90.58198,-124.08655 3.86035,-32.56708 33.21462,-90.60835 33.21462,-90.60835 z"/>
  </g>
</svg>